<svg width="150" height="150" viewBox="0 0 150 150" fill="none" xmlns="http://www.w3.org/2000/svg">
<circle cx="75" cy="75" r="75" fill="#FF1A3B"/>
<path fill-rule="evenodd" clip-rule="evenodd" d="M63.5776 40.6771C63.5776 37.9752 65.768 35.7848 68.47 35.7848H75.3192C78.0213 35.7848 80.2116 37.9752 80.2116 40.6771C80.2116 43.3791 78.0213 45.5695 75.3192 45.5695H68.47C65.768 45.5695 63.5776 43.3791 63.5776 40.6771ZM68.47 39.6987C67.9297 39.6987 67.4915 40.1367 67.4915 40.6771C67.4915 41.2175 67.9297 41.6556 68.47 41.6556H75.3192C75.8596 41.6556 76.2977 41.2175 76.2977 40.6771C76.2977 40.1367 75.8596 39.6987 75.3192 39.6987H68.47Z" fill="white"/>
<path fill-rule="evenodd" clip-rule="evenodd" d="M49.79 36.2872C49.8949 36.0933 50.0154 35.9029 50.1531 35.718C52.1025 33.1002 58.6195 26.0007 71.6755 26H71.6856C83.7219 26.0031 91.2004 32.7694 93.6507 35.3927C93.893 35.6522 94.1005 35.9298 94.2754 36.2198C94.7661 37.0133 95.011 37.9035 95.0611 38.7681L95.5406 47.0371C95.5777 47.6775 95.5139 48.2916 95.3648 48.8681L95.6872 58.6618C95.7545 60.7045 94.8017 62.4594 93.35 63.5707C93.5629 63.8839 93.6874 64.2622 93.6874 64.6695V70.1217C93.6874 72.5633 92.6295 74.8852 90.7872 76.4874C90.5765 76.6707 90.3977 76.948 90.2963 77.3101C89.7525 79.2532 88.3502 83.4597 85.5143 87.2193C84.5855 88.4505 83.4904 89.648 82.2119 90.7042C82.4267 90.6231 82.6594 90.5788 82.9024 90.5788C83.9832 90.5788 84.8593 91.4549 84.8593 92.5358V98.0628L101.727 101.376C101.741 101.379 101.754 101.381 101.768 101.384V91.2569C98.825 89.5168 96.8457 86.3082 96.8457 82.6344C96.8457 78.1713 99.7649 74.3951 103.793 73.1013C105.834 72.4459 107.471 74.1358 107.471 75.8479V81.1249H109.374V75.8479C109.374 74.1358 111.012 72.4459 113.052 73.1013C117.08 74.3951 120 78.1713 120 82.6344C120 86.3081 118.021 89.5167 115.078 91.2568V117.761C115.078 118.58 114.929 119.369 114.655 120.099C114.13 122.715 111.833 124.825 108.892 124.825H35.8758C31.8109 124.825 28.9761 120.794 30.3511 116.968L32.7987 110.159C34.4232 105.64 38.2953 102.302 43.0042 101.36L59.4702 98.0684V92.5358C59.4702 91.7188 59.9708 91.0188 60.6818 90.7258C59.4064 89.6713 58.3388 88.4686 57.4523 87.2164C54.766 83.4223 53.726 79.1752 53.3575 77.1874C53.2858 76.8004 53.1257 76.5015 52.933 76.306C51.3983 74.7489 50.5379 72.6503 50.5379 70.4639V64.6695C50.5379 64.3245 50.6273 64.0002 50.784 63.7187C49.166 62.6047 48.0893 60.727 48.1978 58.5302L48.665 49.0685C48.4487 48.3676 48.3601 47.6073 48.4294 46.8096L49.1615 38.3917C49.2212 37.7058 49.4049 36.9737 49.79 36.2872ZM111.164 108.352V90.7055C111.164 89.4963 111.889 88.5221 112.803 88.0452C114.758 87.0255 116.086 84.9834 116.086 82.6344C116.086 80.4845 114.973 78.5915 113.288 77.5055V82.1033C113.288 83.7246 111.974 85.0387 110.352 85.0387H106.493C104.872 85.0387 103.557 83.7246 103.557 82.1033V77.5055C101.873 78.5915 100.76 80.4845 100.76 82.6344C100.76 84.9835 102.087 87.0256 104.043 88.0452C104.957 88.5222 105.682 89.4964 105.682 90.7056V102.811C107.993 104.08 109.905 106.001 111.164 108.352ZM52.3923 52.9431L52.1069 58.7232C52.0412 60.0551 53.3525 61.1741 54.764 60.8279C59.3862 59.6942 66.2907 58.2484 71.6699 58.2297C77.2341 58.2104 84.4063 59.7072 89.125 60.8608C90.5183 61.2014 91.819 60.1117 91.7754 58.7906L91.5845 52.9887C90.4921 53.3909 89.2706 53.4888 88.0502 53.1913C83.3509 52.0457 76.6737 50.6856 71.6835 50.703C66.8883 50.7196 60.5066 52.0193 55.9129 53.1401C54.6959 53.4371 53.4801 53.3408 52.3923 52.9431ZM90.9334 38.2583C91.0406 38.443 91.1137 38.685 91.1236 38.9847L91.4287 48.2543C91.0116 49.0955 90.0229 49.6438 88.9772 49.3888C84.2603 48.2389 77.1782 46.7699 71.6699 46.7891C66.3732 46.8075 59.6003 48.2118 54.9852 49.3378C54.004 49.5772 53.0763 49.1099 52.6187 48.3595L53.0945 38.7208C53.1064 38.4789 53.1565 38.3019 53.2197 38.1747C53.2305 38.1572 53.2414 38.1409 53.2524 38.126C54.6476 36.2269 59.8999 30.2055 70.8766 29.924C71.14 29.9173 71.4067 29.9139 71.6768 29.9139C71.9707 29.9139 72.2614 29.9185 72.5491 29.9276C82.5834 30.2436 88.8125 35.9481 90.8225 38.115C90.8617 38.1573 90.8989 38.2051 90.9334 38.2583ZM54.4518 64.8009V70.4639C54.4518 71.6221 54.9076 72.7337 55.7206 73.5587C56.5427 74.3927 57.0139 75.4396 57.2057 76.4739C57.5306 78.226 58.4352 81.8313 60.6466 84.9548C62.801 87.9976 66.1742 90.5788 71.6768 90.5788C76.6025 90.5788 80.0074 88.0204 82.3897 84.8622C84.8005 81.6663 86.04 77.9962 86.5273 76.2552C86.808 75.2526 87.3602 74.2809 88.2188 73.5341C89.2065 72.6752 89.7735 71.4306 89.7735 70.1217V64.8351C89.2542 64.8471 88.7247 64.7921 88.1955 64.6628C83.4922 63.5129 76.7272 62.1262 71.6835 62.1436C66.8099 62.1605 60.3002 63.4999 55.6964 64.6291C55.2801 64.7312 54.8635 64.7873 54.4518 64.8009ZM63.384 92.5375V98.7697C65.565 100.456 68.7794 101.396 72.1648 101.396C75.5501 101.396 78.7646 100.456 80.9455 98.7697V92.5358C80.9455 92.1152 81.0782 91.7257 81.3039 91.4067C78.7749 93.2353 75.6019 94.4927 71.6768 94.4927C68.3805 94.4927 65.6438 93.7392 63.384 92.5375ZM48.9008 120.911H95.8672V104.214L91.9533 103.445V106.234C91.9533 109.477 89.3249 112.105 86.0825 112.105H58.6854C55.443 112.105 52.8146 109.477 52.8146 106.234V103.39L48.9008 104.173V120.911ZM44.9869 104.955V120.911H35.8758C34.5208 120.911 33.5758 119.568 34.0342 118.292L36.4819 111.483C37.6421 108.255 40.408 105.871 43.7716 105.198L44.9869 104.955ZM99.7811 104.982V120.911H108.892C110.247 120.911 111.192 119.568 110.734 118.292L108.295 111.508C107.131 108.269 104.35 105.88 100.973 105.216L99.7811 104.982ZM60.8775 101.778L56.7285 102.608V106.234C56.7285 107.315 57.6046 108.191 58.6854 108.191H86.0825C87.1632 108.191 88.0395 107.315 88.0395 106.234V102.676L83.4554 101.776C80.3971 104.198 76.1936 105.31 72.1648 105.31C68.1374 105.31 63.9354 104.199 60.8775 101.778Z" fill="white"/>
</svg>
