<svg width="150" height="150" viewBox="0 0 150 150" fill="none" xmlns="http://www.w3.org/2000/svg">
<circle cx="75" cy="75" r="75" fill="#FF1A3B"/>
<path d="M77.2256 72.7766C76.5383 72.0893 75.4256 72.0893 74.7383 72.7766C74.0527 73.4621 74.0527 74.5748 74.7383 75.2622C75.4256 75.9477 76.5383 75.9477 77.2256 75.2622C77.9112 74.5748 77.9112 73.4621 77.2256 72.7766Z" fill="white"/>
<path d="M99.5976 50.4029C96.1628 46.9683 90.6025 46.9681 87.1675 50.4029C83.7417 53.8287 83.7415 59.4046 87.168 62.8332C90.5951 66.2581 96.1709 66.2595 99.5976 62.8328C103.032 59.3984 103.033 53.8379 99.5976 50.4029ZM97.1117 60.3468C95.0563 62.4023 91.7104 62.4023 89.6539 60.3471C87.5982 58.2901 87.598 54.9443 89.6536 52.8888C91.7143 50.8281 95.0506 50.8278 97.1117 52.8888C99.1724 54.9494 99.1727 58.2859 97.1117 60.3468Z" fill="white"/>
<path d="M119.485 30.5149C119.14 30.1698 118.669 29.9828 118.179 30.0012C117.782 30.0155 108.318 30.3959 97.0692 34.3719C88.0551 37.5546 80.5416 42.1114 74.7375 47.9157C73.4369 49.2164 72.1712 50.5955 70.9603 52.0283C65.2213 48.6502 60.6225 49.7094 57.7153 51.2653C51.0213 54.8477 46.8779 64.5748 46.8779 71.5323C46.8785 72.2431 47.3068 72.8842 47.9636 73.1561C48.181 73.2463 48.4095 73.2901 48.6359 73.2901C49.0935 73.2901 49.543 73.1113 49.8792 72.7752C53.4095 69.245 57.7638 69.4658 59.1862 69.6528L59.8018 70.2684C58.5903 73.1512 57.6144 76.0179 56.8986 78.806C56.6402 79.8149 56.7274 80.8826 57.1114 81.8593C55.419 82.6392 53.7862 83.7845 52.3644 85.2062C47.8396 89.7312 46.9208 100.759 46.8839 101.226C46.8435 101.739 47.0295 102.244 47.3931 102.607C47.7241 102.938 48.1719 103.122 48.6359 103.122C48.682 103.122 48.7282 103.12 48.7744 103.117C49.2417 103.08 60.2695 102.161 64.7944 97.6363C66.2156 96.2151 67.3606 94.5824 68.1405 92.8903C69.1745 93.2969 70.2387 93.347 71.1956 93.1018C73.9825 92.3862 76.8488 91.4106 79.732 90.1989L80.3476 90.8145C80.5344 92.2371 80.7552 96.5914 77.2251 100.121C76.7226 100.624 76.5721 101.38 76.8442 102.037C77.1162 102.694 77.7571 103.122 78.4681 103.122C85.4256 103.122 95.1525 98.9785 98.7349 92.2846C100.291 89.3777 101.35 84.7789 97.9718 79.0397C99.4039 77.8293 100.783 76.5637 102.084 75.2625C107.889 69.4582 112.445 61.9447 115.628 52.9313C119.604 41.6816 119.985 32.2182 119.999 31.8209C120.016 31.3331 119.83 30.8601 119.485 30.5149ZM50.8081 67.7514C51.9 62.4668 55.0717 56.6679 59.3748 54.3648C62.2504 52.826 65.3936 52.9769 68.7356 54.8062C65.8884 58.5507 63.4132 62.5849 61.3501 66.845C61.3239 66.8289 61.0075 66.4311 60.4197 66.2985C60.178 66.2439 55.5269 65.2435 50.8081 67.7514ZM62.3084 95.1502C59.8914 97.5672 54.2216 98.842 50.6379 99.3624C51.1586 95.7786 52.4335 90.1089 54.8504 87.6921C56.2039 86.3386 57.7733 85.3124 59.3507 84.7344L65.2662 90.6498C64.6882 92.2273 63.6621 93.7967 62.3084 95.1502ZM70.3224 89.6962C69.8136 89.8264 69.2244 89.6352 68.7864 89.1978C66.5123 86.9238 65.6226 86.0341 65.3435 85.7552C64.8316 85.2433 63.5764 83.988 60.8038 81.2152C60.3654 80.7759 60.1741 80.1869 60.304 79.6791C60.867 77.4864 61.6034 75.2367 62.4988 72.9654L77.0351 87.5017C74.7635 88.3973 72.5142 89.1335 70.3224 89.6962ZM95.6357 90.6257C93.3326 94.9287 87.5339 98.1005 82.2495 99.1923C83.9344 96.0217 84.3058 91.9856 83.6902 89.5382C83.5473 88.9697 83.1764 88.6839 83.1557 88.6503C87.4154 86.5871 91.4494 84.1119 95.1943 81.2648C97.0237 84.6071 97.1743 87.7506 95.6357 90.6257ZM99.5989 72.7766C98.0149 74.3604 96.3093 75.8906 94.5293 77.3245C90.2504 80.7698 85.5409 83.6881 80.5163 86.0113L63.9893 69.4846C66.3124 64.4597 69.2308 59.7501 72.6757 55.4717C74.1108 53.6905 75.6408 51.9847 77.2241 50.4017C82.4316 45.1939 89.1525 41.0493 97.2054 38.066L111.935 52.7951C108.952 60.8479 104.807 67.5687 99.5989 72.7766ZM113.199 49.0877L100.913 36.8012C107.607 34.7221 113.43 33.9435 116.337 33.6637C116.057 36.5709 115.278 42.3944 113.199 49.0877Z" fill="white"/>
<path d="M72.2526 102.606C71.5658 101.92 70.4527 101.92 69.7665 102.607L64.7953 107.58C64.1091 108.266 64.1093 109.379 64.7957 110.066C65.4825 110.752 66.5955 110.752 67.2818 110.065L72.2529 105.092C72.9392 104.406 72.939 103.293 72.2526 102.606Z" fill="white"/>
<path d="M47.394 77.7479C46.7078 77.0613 45.5949 77.0613 44.9081 77.7476L39.9353 82.7187C39.2486 83.4049 39.2485 84.518 39.9347 85.2046C40.6208 85.8908 41.7337 85.8915 42.4206 85.2049L47.3935 80.2338C48.0801 79.5476 48.0803 78.4345 47.394 77.7479Z" fill="white"/>
<path d="M59.8234 105.094C59.1373 104.408 58.0241 104.408 57.3375 105.094L45.43 116.999C44.7434 117.686 44.7434 118.799 45.4298 119.485C46.1159 120.172 47.2291 120.172 47.9158 119.486L59.8232 107.58C60.5098 106.893 60.5098 105.78 59.8234 105.094Z" fill="white"/>
<path d="M45.7609 105.094C45.0747 104.408 43.9614 104.408 43.275 105.094L31.3675 116.999C30.6809 117.686 30.6809 118.799 31.3673 119.485C32.0534 120.172 33.1666 120.172 33.8533 119.486L45.7607 107.58C46.4473 106.893 46.4473 105.78 45.7609 105.094Z" fill="white"/>
<path d="M44.9064 90.1769C44.2202 89.4906 43.107 89.4906 42.4205 90.1771L30.5148 102.085C29.8284 102.771 29.8284 103.884 30.515 104.571C31.2014 105.257 32.3145 105.257 33.0009 104.57L44.9066 92.663C45.5931 91.9764 45.5931 90.8635 44.9064 90.1769Z" fill="white"/>
<path d="M84.6825 65.3179C83.9959 64.6315 82.8832 64.6315 82.1964 65.3179L79.7109 67.8035C79.0244 68.4899 79.0244 69.603 79.7109 70.2896C80.3975 70.976 81.5104 70.976 82.197 70.2896L84.6825 67.804C85.3689 67.1176 85.3689 66.0045 84.6825 65.3179Z" fill="white"/>
</svg>
