<svg width="150" height="150" viewBox="0 0 150 150" fill="none" xmlns="http://www.w3.org/2000/svg">
<circle cx="75" cy="75" r="75" fill="#FF1A3B"/>
<path d="M36.833 56.0612H50.737C51.465 56.0612 52.0553 55.4711 52.0553 54.7428C52.0553 54.0145 51.465 53.4244 50.737 53.4244H36.833C36.1049 53.4244 35.5146 54.0145 35.5146 54.7428C35.5146 55.4711 36.1047 56.0612 36.833 56.0612Z" fill="white"/>
<path d="M50.2603 62.4081H44.7678C44.0397 62.4081 43.4495 62.9982 43.4495 63.7264C43.4495 64.4547 44.0397 65.0448 44.7678 65.0448H50.2603C50.9884 65.0448 51.5786 64.4547 51.5786 63.7264C51.5786 62.9982 50.9884 62.4081 50.2603 62.4081Z" fill="white"/>
<path d="M31.3184 71.5504H44.7677C45.4958 71.5504 46.0861 70.9603 46.0861 70.2321C46.0861 69.5038 45.4958 68.9137 44.7677 68.9137H31.3184C30.5903 68.9137 30 69.5038 30 70.2321C30 70.9603 30.5903 71.5504 31.3184 71.5504Z" fill="white"/>
<path d="M52.0553 94.9226C52.0553 94.1943 51.465 93.6042 50.737 93.6042H36.833C36.1049 93.6042 35.5146 94.1943 35.5146 94.9226C35.5146 95.6509 36.1049 96.241 36.833 96.241H50.737C51.465 96.241 52.0553 95.6509 52.0553 94.9226Z" fill="white"/>
<path d="M50.2603 84.6208H44.7678C44.0397 84.6208 43.4495 85.2109 43.4495 85.9392C43.4495 86.6675 44.0397 87.2576 44.7678 87.2576H50.2603C50.9884 87.2576 51.5786 86.6675 51.5786 85.9392C51.5786 85.2109 50.9884 84.6208 50.2603 84.6208Z" fill="white"/>
<path d="M46.0861 79.4335C46.0861 78.7052 45.4958 78.1151 44.7677 78.1151H31.3184C30.5903 78.1151 30 78.7052 30 79.4335C30 80.1617 30.5903 80.7518 31.3184 80.7518H44.7677C45.4958 80.7518 46.0861 80.1617 46.0861 79.4335Z" fill="white"/>
<path d="M86.1672 58.9826C86.8955 58.9826 87.4856 58.3925 87.4856 57.6642V55.6519C87.4856 54.9236 86.8955 54.3335 86.1672 54.3335C85.439 54.3335 84.8489 54.9236 84.8489 55.6519V57.6642C84.8489 58.3925 85.439 58.9826 86.1672 58.9826Z" fill="white"/>
<path d="M100.662 60.3376C100.147 59.8229 99.3127 59.8229 98.7979 60.3376L97.3749 61.7605C96.8601 62.2755 96.8601 63.1102 97.3749 63.625C97.8901 64.1399 98.7246 64.1397 99.2394 63.625L100.662 62.2021C101.177 61.6872 101.177 60.8526 100.662 60.3376Z" fill="white"/>
<path d="M103.336 73.5144C102.607 73.5144 102.017 74.1045 102.017 74.8328C102.017 75.561 102.607 76.1511 103.336 76.1511H105.348C106.076 76.1511 106.666 75.561 106.666 74.8328C106.666 74.1045 106.076 73.5144 105.348 73.5144H103.336Z" fill="white"/>
<path d="M99.2394 86.0404C98.7244 85.5257 97.8898 85.5257 97.3749 86.0404C96.8601 86.5555 96.8601 87.3901 97.3749 87.9049L98.7979 89.3279C99.3131 89.8428 100.148 89.8426 100.662 89.3279C101.177 88.8129 101.177 87.9782 100.662 87.4634L99.2394 86.0404Z" fill="white"/>
<path d="M84.8489 92.0013V94.0135C84.8489 94.7418 85.439 95.3319 86.1672 95.3319C86.8955 95.3319 87.4856 94.7418 87.4856 94.0135V92.0013C87.4856 91.2731 86.8955 90.683 86.1672 90.683C85.439 90.683 84.8489 91.2733 84.8489 92.0013Z" fill="white"/>
<path d="M73.095 86.0404L71.672 87.4634C71.1572 87.9784 71.1572 88.813 71.672 89.3279C72.1871 89.8428 73.0217 89.8426 73.5364 89.3279L74.9593 87.9049C75.4742 87.3899 75.4742 86.5553 74.9593 86.0404C74.4446 85.5257 73.6098 85.5257 73.095 86.0404Z" fill="white"/>
<path d="M66.9863 73.5144C66.2582 73.5144 65.668 74.1045 65.668 74.8328C65.668 75.561 66.2582 76.1511 66.9863 76.1511H68.9987C69.7268 76.1511 70.317 75.561 70.317 74.8328C70.317 74.1045 69.7268 73.5144 68.9987 73.5144H66.9863Z" fill="white"/>
<path d="M74.9593 61.7605L73.5364 60.3376C73.0215 59.8229 72.1867 59.8229 71.672 60.3376C71.1572 60.8526 71.1572 61.6872 71.672 62.2021L73.095 63.625C73.61 64.1399 74.4446 64.1397 74.9593 63.625C75.4742 63.1102 75.4742 62.2755 74.9593 61.7605Z" fill="white"/>
<path d="M93.2565 74.8328C93.2565 74.1045 92.6664 73.5144 91.9381 73.5144H87.4856V63.7262C87.4856 62.9979 86.8955 62.4078 86.1672 62.4078C85.439 62.4078 84.8489 62.9979 84.8489 63.7262V74.8328C84.8489 75.561 85.439 76.1511 86.1672 76.1511H91.9381C92.6662 76.1511 93.2565 75.561 93.2565 74.8328Z" fill="white"/>
<path d="M111.165 74.6152C111.892 74.571 112.446 73.9461 112.401 73.2195C111.563 59.3849 100.039 48.5479 86.167 48.5479C71.6735 48.5479 59.8821 60.3393 59.8821 74.833C59.8821 89.3265 71.6735 101.118 86.167 101.118C99.1518 101.118 110.231 91.6042 112.159 78.7661C112.267 78.0461 111.771 77.3747 111.051 77.2666C110.333 77.1589 109.659 77.6544 109.551 78.3748C107.82 89.9085 97.8609 98.4813 86.167 98.4813C73.1274 98.4813 62.5188 87.8728 62.5188 74.8331C62.5188 61.7935 73.1274 51.1847 86.167 51.1847C98.6476 51.1847 109.015 60.9337 109.77 73.3794C109.813 74.1057 110.438 74.6573 111.165 74.6152Z" fill="white"/>
<path d="M86.167 41C81.5297 41 76.9862 41.9621 72.8044 43.7612H49.5435C48.8154 43.7612 48.2251 44.3513 48.2251 45.0795C48.2251 45.8078 48.8154 46.3979 49.5435 46.3979H67.8446C65.3701 47.9905 63.0921 49.9114 61.0837 52.1291C60.595 52.6685 60.6361 53.5023 61.1758 53.9911C61.7156 54.48 62.549 54.4387 63.038 53.899C68.9446 47.3772 77.3749 43.6367 86.167 43.6367C103.369 43.6367 117.363 57.6312 117.363 74.8328C117.363 92.0342 103.369 106.029 86.167 106.029C68.9654 106.029 54.9709 92.0344 54.9709 74.8328C54.9709 68.8091 56.6916 62.9626 59.9467 57.9251C60.3419 57.3136 60.1664 56.4976 59.5549 56.1024C58.9434 55.7074 58.1274 55.8825 57.7321 56.4942C54.2006 61.9589 52.3342 68.3002 52.3342 74.8328C52.3342 86.7448 58.5227 97.2375 67.853 103.268H49.5436C48.8155 103.268 48.2253 103.858 48.2253 104.586C48.2253 105.314 48.8155 105.904 49.5436 105.904H72.7863C76.8926 107.68 81.4166 108.666 86.1671 108.666C104.822 108.666 120 93.4883 120 74.8328C120 56.1773 104.822 41 86.167 41Z" fill="white"/>
</svg>
