<svg width="150" height="150" viewBox="0 0 150 150" fill="none" xmlns="http://www.w3.org/2000/svg">
<circle cx="75" cy="75" r="75" fill="#FF1A3B"/>
<path d="M91.2734 86.9999H58.7234C57.3655 86.9986 56.1526 87.8488 55.6905 89.1256C55.2284 90.4025 55.6165 91.832 56.6609 92.7L61.5224 96.75C62.1019 97.2342 62.8328 97.4996 63.5879 97.4999H86.4089C87.1636 97.4998 87.8941 97.2342 88.473 96.75L93.336 92.7C94.3803 91.832 94.7684 90.4025 94.3064 89.1256C93.8443 87.8488 92.6313 86.9986 91.2734 86.9999ZM91.4234 90.396L86.5604 94.446C86.5182 94.4804 86.4649 94.4984 86.4104 94.4969H63.5909C63.5361 94.4986 63.4827 94.4798 63.4409 94.4444L58.5779 90.3944C58.4976 90.339 58.4689 90.2338 58.5104 90.1453C58.5337 90.0503 58.6229 89.9866 58.7203 89.9953H91.2703C91.3677 89.9866 91.4569 90.0503 91.4802 90.1453C91.523 90.2333 91.4957 90.3395 91.4157 90.3959H91.4234V90.396Z" fill="white"/>
<path d="M102.043 87.75L97.1653 91.8C96.1173 92.6663 95.7266 94.0977 96.1893 95.3762C96.652 96.6549 97.868 97.5048 99.2277 97.4999H111C112.657 97.4999 114 96.1568 114 94.4999V89.9999C114 88.343 112.657 86.9999 111 86.9999H104.107C103.353 87.0021 102.623 87.2672 102.043 87.75ZM111 89.9999V94.4999H99.2279C99.1299 94.5095 99.0398 94.4456 99.0163 94.3499C98.9751 94.2638 99.0041 94.1606 99.0838 94.1084L103.963 90.0494C104.005 90.0136 104.059 89.995 104.113 89.9968L111 89.9999Z" fill="white"/>
<path d="M47.9566 87.7501C47.3792 87.2685 46.652 87.0034 45.9001 87.0001H39C37.3432 87.0001 36 88.3433 36 90.0002V94.5001C36 96.157 37.3432 97.5002 39 97.5002H50.769C52.1281 97.5039 53.3432 96.6541 53.8059 95.3762C54.2686 94.0983 53.8793 92.6674 52.833 91.8002L47.9566 87.7501ZM50.9836 94.35C50.9602 94.4457 50.8701 94.5096 50.7721 94.5H39V90H45.9001C45.9548 89.9981 46.0084 90.0168 46.0501 90.0526L50.9311 94.1116C51.0034 94.1683 51.0254 94.2682 50.9836 94.35Z" fill="white"/>
<path fill-rule="evenodd" clip-rule="evenodd" d="M49.5 102H38.9999C38.1716 102 37.5 102.672 37.5 103.5C37.5 104.328 38.1716 105 38.9999 105H49.5C50.3284 105 50.9999 104.328 50.9999 103.5C50.9999 102.672 50.3284 102 49.5 102Z" fill="white"/>
<path fill-rule="evenodd" clip-rule="evenodd" d="M111 102H100.5C99.6716 102 99 102.672 99 103.5C99 104.328 99.6716 105 100.5 105H111C111.828 105 112.5 104.328 112.5 103.5C112.5 102.672 111.828 102 111 102Z" fill="white"/>
<path fill-rule="evenodd" clip-rule="evenodd" d="M88.5 102H61.4999C60.6716 102 60 102.672 60 103.5C60 104.328 60.6716 105 61.4999 105H88.5C89.3283 105 89.9999 104.328 89.9999 103.5C89.9999 102.672 89.3283 102 88.5 102Z" fill="white"/>
<path d="M120 73.5C120 71.0147 117.985 69 115.5 69H112.5C111.192 69.0049 109.952 69.5814 109.105 70.578L106.29 62.142C105.596 60.0522 104.016 58.3742 101.971 57.5551C101.971 57.3676 102 57.1877 102 57.0002C102 42.0883 89.9117 30 74.9999 30C60.0882 30 48.0001 42.0883 48.0001 57C48.0001 57.1875 48.0241 57.3675 48.0286 57.555C45.9858 58.3725 44.4066 60.0483 43.7115 62.136L40.8945 70.578C40.0479 69.5814 38.8077 69.0049 37.5 69H34.5C32.0147 69 30 71.0147 30 73.5C30 75.9852 32.0147 78 34.5 78H36.8789L31.329 83.55C30.476 84.3941 29.9974 85.545 30 86.7449V106.5C30.0078 108.4 31.2085 110.09 33 110.724V115.5C33 117.985 35.0148 120 37.5 120H48.0001C50.4853 120 52.5 117.985 52.5 115.5V111H97.5V115.5C97.5 117.985 99.5147 120 102 120H112.5C114.985 120 117 117.985 117 115.5V110.724C118.791 110.091 119.992 108.4 120 106.5V86.7449C120.003 85.5472 119.526 84.3982 118.675 83.5545L113.126 78.0045H115.5C116.694 78.0045 117.84 77.5297 118.684 76.685C119.528 75.84 120.001 74.6942 120 73.5ZM103.441 63.0856L107.418 75.0001H95.0668C98.6369 71.036 100.946 66.0987 101.7 60.8176C102.514 61.3617 103.126 62.1587 103.441 63.0856ZM74.9999 33C88.2548 33 98.9999 43.7451 98.9999 57C98.9999 70.2549 88.2548 81 74.9999 81C61.7451 81 51 70.2549 51 57C51.0158 43.7516 61.7517 33.0157 74.9999 33ZM46.5601 63.078C46.8763 62.154 47.4876 61.3596 48.3001 60.8175C49.054 66.0987 51.363 71.0359 54.933 74.9999H42.582L46.5601 63.078ZM34.5 74.9999C33.6716 74.9999 33 74.3283 33 73.5C33 72.6716 33.6716 72 34.5 72H37.5C38.3284 72 39 72.6716 39 73.5V74.9999H34.5ZM49.5 115.5C49.5 116.328 48.8284 117 48.0001 117H37.5C36.6717 117 36.0001 116.328 36.0001 115.5V111H49.5V115.5ZM114 115.5C114 116.328 113.328 117 112.5 117H102C101.172 117 100.5 116.328 100.5 115.5V111H114V115.5ZM116.55 85.6755C116.837 85.9572 117 86.3425 117 86.7449V106.5C117 107.328 116.328 108 115.5 108H34.5C33.6716 108 33 107.328 33 106.5V86.7449C33.0005 86.3425 33.1626 85.9572 33.45 85.6755L41.121 78H58.0709C67.9425 86 82.0663 86 91.9379 78H108.888L116.55 85.6755ZM111 74.9999V73.5C111 72.6716 111.672 72 112.5 72H115.5C116.328 72 117 72.6716 117 73.5C117 74.3283 116.328 74.9999 115.5 74.9999H111Z" fill="white"/>
<path d="M61.6499 56.2259C62.4455 56.2273 63.2089 55.9115 63.771 55.3484L64.5584 54.5609L67.8224 57.8249L67.0724 58.5749C62.8102 58.1119 58.9766 61.1842 58.4999 65.445C58.4556 66.3987 58.9254 67.3032 59.731 67.8154C60.5368 68.3276 61.555 68.3693 62.3999 67.9245C63.3794 67.4024 63.7498 67.7745 63.9869 68.0279C64.2239 68.2814 64.5989 68.6279 64.086 69.5819C63.6396 70.4019 63.6574 71.396 64.1328 72.1994C64.6083 73.0029 65.4714 73.4968 66.4049 73.4999H66.4949C67.7653 73.4242 68.9878 72.9888 70.0199 72.2445C72.3922 70.6112 73.6868 67.8157 73.3979 64.95L74.1749 64.1715L82.6243 72.6209C83.7992 73.795 85.7033 73.795 86.8783 72.6209L88.9918 70.4999C90.159 69.329 90.159 67.4348 88.9918 66.2639L80.5424 57.8159L82.914 55.4429C85.1903 55.73 87.4712 54.9455 89.0894 53.3189C90.4348 52.0829 91.2726 50.3908 91.4399 48.5713V48.5609C91.4858 47.6066 91.0163 46.7008 90.2103 46.188C89.404 45.6751 88.3849 45.6339 87.5399 46.0798C86.5589 46.6033 86.1795 46.2193 85.9455 45.9838C85.7115 45.7483 85.3289 45.3658 85.8659 44.4013C86.3069 43.5595 86.2674 42.5468 85.7624 41.7419C85.2813 40.9303 84.3902 40.4522 83.448 40.4999C82.177 40.5759 80.9539 41.0118 79.9215 41.7568C77.5372 43.3986 76.2444 46.215 76.554 49.0932L74.1899 51.4587L70.9259 48.1947L72.2579 46.8628C73.0217 46.0985 73.3155 44.9826 73.0272 43.9413C72.7387 42.8999 71.9126 42.0943 70.8644 41.8319L65.772 40.5585C64.7493 40.3056 63.6689 40.6047 62.9219 41.3474L56.3474 47.9234C55.7845 48.486 55.4683 49.2493 55.4683 50.0452C55.4683 50.841 55.7845 51.6043 56.3474 52.1669L59.5304 55.3499C60.0921 55.9125 60.8549 56.2278 61.6499 56.2259ZM86.8649 68.3759L84.7499 70.4999L76.2974 62.0549L78.4199 59.9324L86.8649 68.3759ZM79.2269 50.6655C79.597 50.2957 79.7477 49.7596 79.6244 49.251C79.2179 47.3244 80.0087 45.3422 81.6299 44.2246C82.0238 43.9431 82.4631 43.7314 82.9289 43.5991C82.2944 45.1457 82.6519 46.922 83.8352 48.1028C85.0185 49.2835 86.7957 49.6371 88.3408 48.9992C88.0733 49.8377 87.5969 50.5945 86.9563 51.1982C85.873 52.3057 84.28 52.7492 82.7804 52.3606C82.2679 52.2306 81.7248 52.3798 81.3508 52.7536L70.7309 63.3737C70.3644 63.7401 70.2129 64.2698 70.3304 64.7747C70.7173 66.6938 69.9238 68.6589 68.3129 69.7712C67.9173 70.0527 67.4764 70.2643 67.0094 70.3967C67.6918 68.8607 67.3311 67.0614 66.1094 65.9072C65.3736 65.1135 64.3417 64.6606 63.2594 64.6562C62.6873 64.661 62.1215 64.7741 61.5915 64.9892C61.8596 64.1505 62.3364 63.3938 62.9774 62.7902C64.0755 61.6752 65.6899 61.2394 67.1999 61.6502C67.7144 61.7835 68.261 61.6346 68.6369 61.2587L79.2269 50.6655ZM72.0689 53.5799L69.9449 55.7039L66.6809 52.4399L68.8049 50.3159L72.0689 53.5799ZM65.0444 43.4684L70.1444 44.736L61.6499 53.2275L58.467 50.046L65.0444 43.4684Z" fill="white"/>
</svg>
