<svg width="150" height="150" viewBox="0 0 150 150" fill="none" xmlns="http://www.w3.org/2000/svg">
<circle cx="75" cy="75" r="75" fill="#FF1A3B"/>
<path d="M45.3365 118.083C42.5114 118.083 39.7157 117.082 37.5714 115.059C35.2785 112.899 33.9912 109.974 33.9422 106.826C33.8953 103.676 35.0946 100.718 37.3171 98.4917L56.6231 79.1563C57.3744 78.405 58.5893 78.405 59.3406 79.1563C60.0919 79.9076 60.0919 81.1245 59.3406 81.8777L40.0346 101.213C38.5516 102.698 37.7534 104.67 37.7847 106.771C37.816 108.869 38.6768 110.819 40.2048 112.259C43.1942 115.08 48.1205 114.877 51.1862 111.809L55.4688 107.521C56.2201 106.769 57.435 106.769 58.1863 107.521C58.9376 108.272 58.9376 109.489 58.1863 110.242L53.9037 114.53C51.5462 116.89 48.4218 118.083 45.3365 118.083ZM96.4853 79.1191C96.3934 79.1191 96.3014 79.1172 96.2114 79.1172C95.1491 79.1054 94.3 78.2348 94.3118 77.1725C94.3235 76.116 95.1824 75.2689 96.233 75.2689C96.3464 75.2708 96.4012 75.2689 96.4853 75.2689C99.0717 75.2689 101.576 74.7817 103.93 73.8191C105.454 73.2009 106.88 72.3929 108.177 71.4186C114.582 66.6117 117.441 58.5707 115.609 50.9544L105.522 61.0554C103.845 62.736 100.923 62.736 99.2439 61.0554L90.9995 52.7993C90.1602 51.96 89.6985 50.8429 89.6985 49.6573C89.6985 48.4697 90.1602 47.3545 90.9995 46.5133L101.087 36.4103C94.4272 34.7904 87.476 36.7194 82.5673 41.6359C80.6989 43.5082 79.2512 45.6877 78.2671 48.1156C77.3808 50.2931 76.8937 52.5802 76.8174 54.9201C76.7822 55.9824 75.8802 56.8589 74.8336 56.7806C73.7732 56.7454 72.9417 55.8572 72.9769 54.7948C73.0689 51.9971 73.6519 49.2621 74.7103 46.6659C75.8861 43.7645 77.6176 41.1546 79.8518 38.9165C86.2337 32.5229 95.515 30.361 104.067 33.2761C104.961 33.5793 105.626 34.3169 105.841 35.2443C106.06 36.1853 105.782 37.1537 105.101 37.8346L93.717 49.2366C93.5722 49.3814 93.5429 49.5457 93.5429 49.6592C93.5429 49.7727 93.5722 49.937 93.717 50.0818L101.961 58.3379C102.194 58.5707 102.574 58.5707 102.807 58.3379L114.193 46.9359C114.874 46.255 115.844 45.9831 116.777 46.1983C117.705 46.4135 118.44 47.0787 118.744 47.9767C122.034 57.6649 118.716 68.3235 110.486 74.5C108.924 75.6738 107.207 76.6442 105.381 77.3857C102.564 78.5341 99.5726 79.1191 96.4853 79.1191Z" fill="white"/>
<path d="M44.3934 109.956C45.6241 109.956 46.6218 108.959 46.6218 107.728C46.6218 106.497 45.6241 105.5 44.3934 105.5C43.1627 105.5 42.165 106.497 42.165 107.728C42.165 108.959 43.1627 109.956 44.3934 109.956Z" fill="white"/>
<path d="M31.9232 72.8682C31.4321 72.8682 30.9391 72.6804 30.5654 72.3048C29.8141 71.5535 29.8141 70.3366 30.5654 69.5834L48.9284 51.1949C49.6797 50.4437 50.8946 50.4437 51.6459 51.1949C52.3972 51.9462 52.3972 53.1631 51.6459 53.9163L33.2829 72.3048C32.9072 72.6804 32.4142 72.8682 31.9232 72.8682Z" fill="white"/>
<path d="M75.0996 84.4876C73.2018 84.4876 71.3022 83.7637 69.8564 82.3179C66.9648 79.4224 66.9648 74.7113 69.8564 71.8158L75.397 66.2673C76.1482 65.5161 77.3632 65.5161 78.1144 66.2673C78.8657 67.0186 78.8657 68.2355 78.1144 68.9887L72.5738 74.5372C71.1809 75.9321 71.1809 78.2016 72.5738 79.5984C73.9688 80.9934 76.2343 80.9934 77.6273 79.5984L85.8991 71.3149C86.3823 70.8297 86.3823 70.0413 85.8991 69.5561L70.4941 54.1297C70.1459 53.7814 69.6255 53.6738 69.1618 53.8519L67.9625 54.3214C63.1517 56.2113 57.6972 55.1372 53.9623 51.5961L51.6459 53.9164C50.8946 54.6677 49.6797 54.6677 48.9284 53.9164C48.1772 53.1651 48.1772 51.9482 48.9284 51.195L52.6007 47.5189C53.3519 46.7676 54.5669 46.7676 55.3181 47.5189L56.4196 48.6204C59.0784 51.285 63.0597 52.1145 66.5617 50.7411L67.761 50.2696C69.6431 49.5321 71.7834 49.9762 73.2136 51.4083L88.6185 66.8347C90.6004 68.8205 90.6004 72.0505 88.6185 74.0344L80.3467 82.3179C78.899 83.7637 76.9973 84.4876 75.0996 84.4876Z" fill="white"/>
<path d="M44.6967 95.737C44.0472 95.737 43.4113 95.4064 43.0494 94.8097C38.264 86.8803 36.8416 80.3282 36.4856 78.2348L30.5635 72.3049C29.8122 71.5536 29.8122 70.3367 30.5635 69.5835C31.3147 68.8322 32.5297 68.8322 33.2809 69.5835L39.6491 75.9614C39.9543 76.2686 40.15 76.6697 40.1989 77.0981C40.2067 77.1646 41.0949 84.1334 46.3381 92.818C46.8879 93.7277 46.5944 94.9114 45.6866 95.4592C45.3775 95.647 45.0352 95.737 44.6967 95.737Z" fill="white"/>
<path d="M88.6634 93.3521C86.7657 93.3521 84.866 92.6282 83.4221 91.1824L76.1794 83.928C75.4281 83.1767 75.4281 81.9598 76.1794 81.2066C76.9307 80.4553 78.1456 80.4553 78.8969 81.2066L86.1396 88.461C87.5326 89.8579 89.8001 89.854 91.193 88.461C92.586 87.0641 92.586 84.7947 91.193 83.4017L84.4551 76.654C83.7038 75.9027 83.7038 74.6839 84.4551 73.9326C85.2064 73.1813 86.4213 73.1813 87.1726 73.9326L93.9105 80.6803C96.8002 83.5739 96.8002 88.285 93.9105 91.1805C92.4608 92.6282 90.5631 93.3521 88.6634 93.3521Z" fill="white"/>
<path d="M82.4244 102.667C80.4425 102.667 78.582 101.894 77.1831 100.491L70.8149 94.1152C69.4141 92.7124 68.6433 90.8479 68.6433 88.8641C68.6433 86.8822 69.4141 85.0158 70.8149 83.615C73.6165 80.8056 78.5018 80.8095 81.2994 83.615L87.6696 89.991C90.5592 92.8885 90.5592 97.5976 87.6696 100.491C86.2668 101.894 84.4043 102.667 82.4244 102.667ZM76.0562 85.2858C75.1015 85.2858 74.2054 85.6575 73.5305 86.3344C72.8555 87.0114 72.4838 87.9094 72.4838 88.8641C72.4838 89.8208 72.8555 90.7188 73.5305 91.3957L79.8986 97.7717C81.2505 99.1256 83.6022 99.1217 84.9521 97.7717C86.3451 96.3768 86.3451 94.1073 84.9521 92.7124L78.582 86.3364C77.905 85.6575 77.009 85.2858 76.0562 85.2858Z" fill="white"/>
<path d="M72.8712 108.657C70.9734 108.657 69.0737 107.933 67.6279 106.488L61.2598 100.112C59.859 98.7089 59.0881 96.8444 59.0881 94.8606C59.0881 92.8787 59.859 91.0123 61.2598 89.6115C64.0614 86.804 68.9466 86.804 71.7462 89.6115L78.1144 95.9875C79.5152 97.3883 80.288 99.2527 80.288 101.237C80.288 103.22 79.5172 105.085 78.1144 106.488C76.6686 107.933 74.7709 108.657 72.8712 108.657ZM66.503 91.2803C65.5483 91.2803 64.6522 91.652 63.9773 92.3289C63.3023 93.0059 62.9306 93.9039 62.9306 94.8586C62.9306 95.8153 63.3023 96.7133 63.9773 97.3902L70.3454 103.766C71.7384 105.161 74.0059 105.161 75.3989 103.766C76.0738 103.089 76.4456 102.191 76.4456 101.235C76.4456 100.28 76.0738 99.3819 75.3989 98.7049L69.0307 92.3289C68.3538 91.654 67.4577 91.2803 66.503 91.2803Z" fill="white"/>
<path d="M62.6117 113.834C60.6317 113.834 58.7692 113.061 57.3684 111.658L51.0002 105.282C49.5994 103.88 48.8286 102.015 48.8286 100.031C48.8286 98.0495 49.5994 96.183 51.0002 94.7822C53.8019 91.9748 58.6871 91.9748 61.4867 94.7822L67.8549 101.158C69.2557 102.561 70.0265 104.425 70.0265 106.409C70.0265 108.393 69.2557 110.258 67.8549 111.658C66.4541 113.063 64.5916 113.834 62.6117 113.834ZM56.2415 96.453C55.2868 96.453 54.3907 96.8248 53.7158 97.5017C53.0408 98.1786 52.6691 99.0766 52.6691 100.031C52.6691 100.988 53.0408 101.886 53.7158 102.563L60.0839 108.939C61.4339 110.291 63.7855 110.291 65.1374 108.939C65.8124 108.262 66.1841 107.364 66.1841 106.409C66.1841 105.453 65.8124 104.555 65.1374 103.878L58.7692 97.5017C58.0943 96.8248 57.1963 96.453 56.2415 96.453Z" fill="white"/>
<path d="M65.2079 77.8982C65.1629 77.8982 65.1198 77.8982 65.0748 77.8982C59.1762 77.8219 54.113 72.5572 53.8997 72.3322C53.17 71.5633 53.2013 70.3484 53.9682 69.6147C54.7371 68.885 55.95 68.9143 56.6837 69.6773C56.7248 69.7204 60.8665 74.001 65.1355 74.048C66.8297 74.0891 68.2403 73.4317 69.5609 72.1072C70.3122 71.3559 71.5271 71.3559 72.2784 72.1072C73.0297 72.8585 73.0297 74.0773 72.2784 74.8286C70.2476 76.8672 67.8686 77.8982 65.2079 77.8982Z" fill="white"/>
<path d="M53.9603 50.7978C53.4614 50.7978 52.9605 50.6061 52.5966 50.2402C52.2504 49.8744 52.0391 49.3931 52.0391 48.8747C52.0391 48.3758 52.2504 47.8749 52.5966 47.5286C53.3264 46.7969 54.6137 46.7969 55.3239 47.5286C55.6702 47.8749 55.8815 48.3758 55.8815 48.8747C55.8815 49.3951 55.6702 49.8744 55.3239 50.2402C54.96 50.6061 54.4592 50.7978 53.9603 50.7978Z" fill="white"/>
</svg>
