<svg width="150" height="150" viewBox="0 0 150 150" fill="none" xmlns="http://www.w3.org/2000/svg">
<circle cx="75" cy="75" r="75" fill="#FF1A3B"/>
<path d="M118.082 54.1639L102.324 38.4059C100.031 36.1124 96.4716 35.8449 93.8611 37.7697L85.3486 44.0462C85.0396 44.274 84.8454 44.6254 84.8165 45.0082C84.7877 45.3911 84.9275 45.7675 85.1989 46.039L87.2503 48.0904L78.2381 57.1026H71.7617L62.749 48.0899L64.8007 46.038C65.0723 45.7664 65.2117 45.39 65.183 45.0072C65.1542 44.6243 64.9598 44.2729 64.6508 44.0451L56.1387 37.77C53.5292 35.8447 49.9699 36.1122 47.6758 38.4066L45.1805 40.902C44.6659 41.4167 44.6659 42.2513 45.1805 42.766C45.6952 43.2807 46.5299 43.2807 47.0445 42.766L49.54 40.2706C50.9049 38.9056 53.0217 38.7462 54.5742 39.8916L57.4064 41.9795L35.4909 63.8949L33.4029 61.0635C32.2584 59.5091 32.4177 57.3909 33.7816 56.027L43.3171 46.4917C43.8318 45.977 43.8318 45.1425 43.3171 44.6277C42.8026 44.113 41.9679 44.113 41.4531 44.6277L31.9176 54.163C29.6252 56.4554 29.3571 60.0148 31.2809 62.6271L37.5583 71.1397C37.7861 71.4488 38.1375 71.643 38.5203 71.6718C38.5534 71.6743 38.5862 71.6755 38.6191 71.6755C38.9672 71.6755 39.3029 71.5375 39.5511 71.2895L41.6027 69.2378L43.1332 70.7683C39.8995 73.5522 38.0076 77.6157 38.0076 81.9194C38.0076 88.9864 43.0513 95.0212 49.894 96.3579C50.6381 100.301 53.4466 103.523 57.1512 104.852V109.586C57.1512 111.751 58.9118 113.512 61.076 113.512C62.7789 113.512 64.2315 112.423 64.7743 110.904H66.6614C67.204 112.423 68.6558 113.512 70.3579 113.512C72.0607 113.512 73.5134 112.423 74.0562 110.904H75.9437C76.4864 112.422 77.9387 113.512 79.6411 113.512C81.3436 113.512 82.7957 112.422 83.3384 110.904H85.2261C85.7688 112.422 87.2211 113.512 88.9234 113.512C91.0879 113.512 92.8489 111.751 92.8489 109.586V99.2244C94.9161 98.9389 96.7742 97.9928 98.2036 96.6057C100.838 96.4405 103.37 95.5721 105.557 94.079C106.158 93.6684 106.312 92.8484 105.902 92.2472C105.491 91.6462 104.671 91.4915 104.07 91.9021C102.912 92.693 101.635 93.2685 100.295 93.6148C100.718 92.6649 100.991 91.6348 101.083 90.5532C104.487 89.0573 106.716 85.6968 106.716 81.9196C106.716 78.9935 105.372 76.2851 103.122 74.5128L104.997 72.6383C107.744 74.9256 109.356 78.3205 109.356 81.9193C109.356 84.2751 108.674 86.559 107.384 88.5243C106.985 89.1329 107.154 89.9499 107.763 90.3494C107.986 90.4959 108.237 90.5657 108.485 90.5657C108.914 90.5657 109.335 90.3563 109.588 89.9708C111.161 87.5747 111.992 84.7905 111.992 81.9194C111.992 77.6149 110.1 73.5517 106.866 70.7692L108.398 69.2378L110.449 71.2893C110.697 71.5374 111.033 71.6754 111.381 71.6754C111.414 71.6754 111.447 71.6741 111.48 71.6717C111.863 71.6428 112.214 71.4486 112.442 71.1396L118.718 62.6273C120.643 60.0164 120.376 56.4571 118.082 54.1639ZM96.8318 66.3375C96.8318 66.0067 96.9607 65.6956 97.1946 65.4616L100.908 61.748L102.66 63.4997L98.9463 67.2133C98.7123 67.4473 98.4014 67.5761 98.0706 67.5761C97.7397 67.5761 97.4286 67.4473 97.1946 67.2133C96.9607 66.9795 96.8318 66.6684 96.8318 66.3375ZM93.5689 54.4089L94.74 55.58L91.0264 59.2936C90.7924 59.5275 90.4815 59.6564 90.1505 59.6564C89.8197 59.6564 89.5087 59.5275 89.2746 59.2936C88.7917 58.8107 88.7917 58.0248 89.2746 57.5419L92.9882 53.8283L93.5689 54.4089ZM89.1144 49.9544L91.1243 51.9643L87.4107 55.6779C85.9001 57.1886 85.9001 59.6467 87.4107 61.1574C88.1425 61.8892 89.1157 62.2922 90.1505 62.2922C91.1855 62.2922 92.1585 61.8892 92.8902 61.1574L96.6038 57.4438L99.0442 59.8842L95.3306 63.5978C94.5988 64.3296 94.1958 65.3027 94.1958 66.3375C94.1958 67.3724 94.5988 68.3455 95.3306 69.0773C96.0624 69.8091 97.0354 70.2121 98.0704 70.2121C99.1054 70.2121 100.078 69.8091 100.81 69.0773L104.524 65.3637L106.534 67.3736L98.0674 75.84L80.648 58.4208L89.1144 49.9544ZM83.5666 99.3179H84.9978V108.268H83.5666V99.3179ZM74.5192 96.6818L81.9488 89.3881C81.945 89.5006 81.9402 89.6131 81.9402 89.7265C81.9402 92.4627 83.0939 94.933 84.938 96.6818H74.5192ZM65.0025 104.744C65.4973 104.551 65.9751 104.325 66.4332 104.067V108.268H65.0025V104.744ZM74.2845 99.3179H75.7156V108.268H74.2845V99.3179ZM72.1219 95.3413C72.1554 94.9885 72.1743 94.6315 72.1743 94.2701C72.1743 88.0731 67.1325 83.0313 60.9354 83.0313C60.6927 83.0313 60.4524 83.0416 60.2133 83.0569L67.5615 75.8715C67.8365 79.7362 71.0665 82.7973 75 82.7973C79.1133 82.7973 82.4596 79.4509 82.4596 75.3376C82.4596 75.1615 82.4514 74.9874 82.4393 74.8145L89.999 80.2597C87.969 80.587 86.1499 81.5522 84.7562 82.9444L84.7578 82.9363L72.1219 95.3413ZM48.7591 76.3944L50.7766 78.4119L53.2477 86.083C52.4748 86.8094 51.8042 87.6426 51.2605 88.5603C48.2061 87.8822 45.919 85.1148 45.919 81.9196C45.9192 79.7062 46.9872 77.6643 48.7591 76.3944ZM75 70.514C77.6597 70.514 79.8236 72.6778 79.8236 75.3376C79.8236 77.9974 77.6597 80.1613 75 80.1613C72.3402 80.1613 70.1763 77.9974 70.1763 75.3376C70.1763 72.6778 72.3402 70.514 75 70.514ZM95.5966 81.043C95.5966 81.043 79.6626 69.5141 79.477 69.3744C78.2291 68.4352 76.6783 67.8779 75 67.8779C73.059 67.8779 71.2892 68.6238 69.9608 69.843L55.3779 84.0983L53.4346 78.0659L71.7619 59.7387H78.2382L96.5653 78.0658L95.6056 81.0469C95.6026 81.0456 95.5996 81.0444 95.5966 81.043ZM49.0919 61.7482L52.8055 65.4618C53.0394 65.6958 53.1683 66.0067 53.1683 66.3375C53.1683 66.6684 53.0394 66.9795 52.8055 67.2133C52.5715 67.4473 52.2605 67.5761 51.9295 67.5761C51.5987 67.5761 51.2878 67.4473 51.0538 67.2133L47.3402 63.4997L49.0919 61.7482ZM38.7705 68.3422L37.0731 66.0405L59.5522 43.5614L61.8534 45.2577L38.7705 68.3422ZM45.4764 65.3639L49.1898 69.0773C49.9216 69.8091 50.8945 70.2121 51.9295 70.2121C52.9646 70.2121 53.9375 69.8091 54.6693 69.0773C55.4011 68.3455 55.8041 67.3724 55.8041 66.3375C55.8041 65.3027 55.4011 64.3296 54.6693 63.5978L50.9557 59.8842L50.9863 59.8536L53.3961 57.4438L57.1097 61.1574C57.8415 61.8892 58.8144 62.2922 59.8494 62.2922C60.8844 62.2922 61.8574 61.8892 62.5892 61.1574C64.0999 59.6467 64.0999 57.1886 62.5892 55.6779L58.8756 51.9643L60.8855 49.9544L69.3519 58.4208L51.9325 75.84L43.4665 67.3739L45.4764 65.3639ZM57.0118 53.8283L60.7254 57.5419C61.2082 58.0248 61.2082 58.8107 60.7254 59.2936C60.4914 59.5275 60.1803 59.6564 59.8494 59.6564C59.5186 59.6564 59.2075 59.5275 58.9735 59.2936L55.2601 55.58L57.0118 53.8283ZM40.6436 81.9194C40.6436 78.3215 42.2552 74.9263 45.0025 72.6376L46.8774 74.5125C44.6272 76.2849 43.283 78.9934 43.283 81.9194C43.283 84.2853 44.1659 86.5499 45.7692 88.2961C46.9723 89.6064 48.5 90.5384 50.1805 91.0084C49.9272 91.8418 49.7685 92.7157 49.7166 93.6179C44.4511 92.2676 40.6436 87.4831 40.6436 81.9194ZM52.3326 94.2701C52.3326 89.5266 56.1919 85.6673 60.9354 85.6673C65.6789 85.6673 69.5382 89.5264 69.5382 94.2701C69.5382 99.0138 65.6789 102.873 60.9354 102.873C56.1919 102.873 52.3326 99.0138 52.3326 94.2701ZM61.076 110.876C60.3655 110.876 59.7872 110.298 59.7872 109.586V105.451C60.1648 105.489 60.5476 105.509 60.9352 105.509C61.4204 105.509 61.8973 105.475 62.3665 105.415V109.586C62.3665 110.298 61.7876 110.876 61.076 110.876ZM70.3579 110.876C69.6474 110.876 69.0692 110.298 69.0692 109.586V102.032L71.6485 99.5V109.586C71.6485 110.298 71.0696 110.876 70.3579 110.876ZM79.6411 110.876C78.9301 110.876 78.3516 110.297 78.3516 109.586V99.3179H80.9305V109.586C80.9305 110.297 80.3522 110.876 79.6411 110.876ZM88.9234 110.876C88.2123 110.876 87.634 110.297 87.634 109.586V99.3179H90.2129V109.586C90.2129 110.297 89.6344 110.876 88.9234 110.876ZM91.5309 96.6811C87.6962 96.6811 84.5762 93.5613 84.5762 89.7265C84.5762 85.8918 87.696 82.7718 91.5309 82.7718C95.3656 82.7718 98.4856 85.8916 98.4856 89.7265C98.4856 93.5613 95.3656 96.6811 91.5309 96.6811ZM104.08 81.9196C104.08 84.3015 102.85 86.4539 100.899 87.6772C100.458 85.6604 99.3812 83.8794 97.8891 82.5552L99.223 78.4122L101.24 76.3948C103.012 77.6641 104.08 79.706 104.08 81.9196ZM111.229 68.3416L88.1464 45.2586L90.4479 43.5616L112.926 66.0401L111.229 68.3416ZM116.597 61.0625L114.509 63.8943L92.5935 41.9793L95.4254 39.8912C96.9786 38.746 99.0959 38.9052 100.46 40.2697L116.218 56.0277C117.583 57.3921 117.742 59.5096 116.597 61.0625Z" fill="white"/>
<path d="M64.9135 94.2701C64.9135 92.0765 63.129 90.292 60.9354 90.292C58.7418 90.292 56.9573 92.0765 56.9573 94.2701C56.9573 96.4637 58.7418 98.2482 60.9354 98.2482C63.129 98.2482 64.9135 96.4637 64.9135 94.2701ZM59.5933 94.2701C59.5933 93.5301 60.1953 92.928 60.9354 92.928C61.6754 92.928 62.2775 93.5301 62.2775 94.2701C62.2775 95.0101 61.6754 95.6122 60.9354 95.6122C60.1953 95.6122 59.5933 95.0101 59.5933 94.2701Z" fill="white"/>
<path d="M91.5308 85.7484C89.3373 85.7484 87.5527 87.5329 87.5527 89.7265C87.5527 91.92 89.3373 93.7046 91.5308 93.7046C93.7244 93.7046 95.5089 91.92 95.5089 89.7265C95.5089 87.5329 93.7244 85.7484 91.5308 85.7484ZM91.5308 91.0685C90.7908 91.0685 90.1888 90.4665 90.1888 89.7265C90.1888 88.9864 90.7908 88.3844 91.5308 88.3844C92.2709 88.3844 92.8729 88.9864 92.8729 89.7265C92.8729 90.4665 92.2709 91.0685 91.5308 91.0685Z" fill="white"/>
</svg>
