<svg width="94" height="45" viewBox="0 0 94 45" fill="none" xmlns="http://www.w3.org/2000/svg">
<g clip-path="url(#clip0_558_882)">
<path fill-rule="evenodd" clip-rule="evenodd" d="M31.3716 44.8697C27.4485 44.2181 23.5689 43.2191 20.1253 42.0897C16.7252 40.917 13.7611 39.5704 11.2764 38.1805C8.79177 36.7471 6.8302 35.2703 5.26094 33.7934C0.727538 29.3195 -0.536584 24.9324 0.335224 20.5453C0.94549 17.6351 2.64552 14.6814 5.95839 11.7278C7.61483 10.2509 9.75076 8.77411 12.3226 7.38415C14.938 5.99419 17.9893 4.6911 21.5638 3.56176C25.0946 2.43241 29.1049 1.52025 33.4204 0.912142C37.7358 0.304034 42.3564 -0.0434561 46.977 -1.97578e-05C51.5976 0.0434165 56.2182 0.390907 60.49 1.04245C64.7619 1.694 68.7286 2.64959 72.2158 3.77894C75.7031 4.90828 78.7544 6.25481 81.2826 7.64477C83.8109 9.03473 85.8596 10.5116 87.4725 11.9884C92.2238 16.4189 93.5751 20.806 92.8341 25.1496C92.2674 28.0598 90.6546 31.0135 87.4725 33.9672C85.8596 35.444 83.8109 36.9208 81.2826 38.3108C78.7544 39.7008 75.7467 41.0473 72.2594 42.1766C68.7722 43.306 64.8055 44.2616 60.7951 44.8697L46.6283 12.5096L31.3716 44.8697ZM74.3954 31.7085C76.5313 30.7094 78.2749 29.667 79.7134 28.6245C83.8545 25.5405 85.3801 22.5 85.4673 19.4594C85.4673 16.3755 84.0288 13.3784 79.9749 10.2944C78.58 9.25191 76.88 8.20944 74.7877 7.2104C72.6953 6.21137 70.2107 5.29921 67.3773 4.47392C64.5439 3.64863 61.3618 2.99708 57.8746 2.51929C54.4309 2.04149 50.7258 1.78087 47.0206 1.73743C43.3154 1.694 39.6102 1.91118 36.123 2.34554C32.6357 2.7799 29.41 3.38801 26.4895 4.16986C23.5689 4.95172 21.0407 5.86388 18.8612 6.81948C16.6816 7.81851 14.8944 8.86098 13.4124 9.90345C9.18408 13.0309 7.57124 16.1148 7.44046 19.1554C7.39687 22.2394 8.79177 25.2365 12.7149 28.277C14.0662 29.3195 15.7662 30.4054 17.815 31.4044C19.8637 32.4035 22.3048 33.3591 24.7895 34.0975L46.7154 8.86098L67.1158 34.3147C69.7312 33.6197 72.2594 32.7075 74.3954 31.7085Z" fill="white" fill-opacity="0.3"/>
</g>
<defs>
<clipPath id="clip0_558_882">
<rect width="92.9348" height="45" fill="white" transform="translate(0.0736084)"/>
</clipPath>
</defs>
</svg>
