<svg width="188" height="33" viewBox="0 0 188 33" fill="none" xmlns="http://www.w3.org/2000/svg">
<g clip-path="url(#clip0_558_884)">
<path fill-rule="evenodd" clip-rule="evenodd" d="M179.308 15.5999H165.508C165.708 13.8999 166.908 12.0999 169.108 12.0999C170.908 12.0999 185.308 12.0999 185.308 12.0999V8.8999H168.408C161.608 8.8999 158.908 13.9999 158.908 18.9999C158.908 18.9999 177.108 18.9999 177.808 18.9999C178.408 18.9999 180.008 19.0999 180.008 20.6999C180.008 22.2999 178.708 22.3999 176.408 22.4999H156.708V8.8999H150.908V22.3999H139.908C136.508 22.3999 136.208 19.8999 136.208 18.5999C136.208 17.1999 136.208 8.8999 136.208 8.8999H125.708L117.108 14.6999L109.408 8.8999H86.6084C79.8084 8.8999 75.8084 13.5999 75.2084 17.6999H79.9084C78.0084 18.8999 76.7084 20.6999 75.9084 22.3999L62.8084 22.4999C59.4084 22.4999 59.1084 19.9999 59.1084 18.6999C59.1084 17.2999 59.1084 8.9999 59.1084 8.9999H53.3084V18.1999C53.3084 24.4999 57.7084 25.7999 59.9084 25.7999C63.1084 25.7999 106.308 25.7999 106.308 25.7999L114.908 19.9999L122.708 25.7999H131.808L119.608 16.8999L129.608 10.1999V19.0999C129.608 24.7999 135.208 25.8999 136.708 25.8999H179.008C181.108 25.8999 186.808 25.6999 186.808 21.0999C186.808 16.4999 182.808 15.5999 179.308 15.5999ZM105.308 22.3999H83.5084C83.6084 20.6999 85.6084 18.8999 87.7084 18.8999H100.608V15.5999H83.0084C83.2084 13.8999 85.1084 12.0999 87.2084 12.0999C89.1084 12.0999 101.908 12.0999 101.908 12.0999H102.008V10.1999L112.208 17.7999L105.308 22.3999Z" fill="white" fill-opacity="0.3"/>
<path fill-rule="evenodd" clip-rule="evenodd" d="M23.0084 33C30.6084 33 37.3084 30.3 41.6084 26.2H37.8084C34.3084 29.2 29.0084 31.1 23.1084 31.1C12.1084 31.1 3.50842 24.5 3.50842 16.5C3.50842 7.2 12.0084 1.9 23.0084 1.9C23.7084 1.9 24.3084 2.2 23.9084 2.8C21.6084 5.5 15.1084 14.4 13.9084 16.3C11.6084 20.1 11.6084 24.7 17.4084 25.1H41.6084C42.8084 25.1 43.1084 24.5 43.5084 23.9C45.2084 21.7 45.9084 19.2 45.9084 16.6C45.9084 9.6 41.0084 4.4 33.8084 1.8L32.7084 3.5C38.7084 5.7 42.6084 10.2 42.6084 16.6C42.6084 17.7 42.5084 18.8 42.1084 19.8C41.9084 20.7 41.3084 21.5 40.3084 21.5H21.2084C18.7084 21.5 19.7084 18.9 20.6084 17.7C22.0084 15.3 29.2084 5.4 31.0084 3.6C31.4084 2.9 32.7084 1.5 31.0084 1C28.4084 0.3 25.7084 0 23.0084 0C10.3084 0 0.00842285 6.6 0.00842285 16.6C0.00842285 26.6 10.3084 33 23.0084 33Z" fill="white" fill-opacity="0.3"/>
</g>
<defs>
<clipPath id="clip0_558_884">
<rect width="187.1" height="33" fill="white" transform="translate(0.00842285)"/>
</clipPath>
</defs>
</svg>
