<svg width="79" height="45" viewBox="0 0 79 45" fill="none" xmlns="http://www.w3.org/2000/svg">
<g clip-path="url(#clip0_558_854)">
<path d="M76.2834 35.1637C76.2834 35.1637 76.2834 41.0895 76.2834 41.6761C76.2679 42.2777 75.8956 42.5183 75.3992 42.5635C73.8168 42.6838 72.1104 42.6838 70.466 42.5635C70.0161 42.5183 69.6748 42.1122 69.6438 41.646C69.6438 41.1948 69.6438 35.1637 69.6438 35.1637H67.0066C67.0066 35.1637 67.0066 40.533 67.0066 42.2326C67.0841 43.9171 68.108 44.8646 69.892 44.9248C71.9087 45 73.9875 45.015 76.1748 44.9248C77.8502 44.8646 78.8431 43.8419 78.9362 42.2175C78.9362 40.4879 78.9362 35.1487 78.9362 35.1487H76.2834V35.1637Z" fill="white" fill-opacity="0.3"/>
<path d="M10.849 38.999C9.93377 38.9238 5.03162 38.6982 4.33353 38.6531C3.80609 38.608 3.5889 38.3523 3.5889 37.9312C3.5889 37.5853 3.80609 37.3146 4.28699 37.2845C5.85382 37.1792 8.58413 37.2093 9.65453 37.2694C10.182 37.2995 10.3992 37.5552 10.4147 37.856V38.3072H13.0829C13.0829 38.3072 13.0829 38.1869 13.0829 37.9011C13.0364 35.9609 12.0746 35.224 10.2285 35.1488C8.22733 35.0736 6.071 35.0585 3.99224 35.1638C2.61158 35.239 1.15334 35.9459 0.951671 37.5853C0.905131 37.9312 0.905131 38.1568 0.951671 38.4426C1.16885 40.2474 2.53401 40.6835 3.61993 40.7738C4.73687 40.864 9.32876 41.1047 9.88723 41.1498C10.6474 41.2099 10.756 41.4957 10.756 41.8868C10.756 42.3229 10.5543 42.5786 9.88723 42.6087C8.47554 42.6989 5.82279 42.6688 4.48866 42.6237C4.02327 42.6087 3.68198 42.4884 3.66647 41.9319V41.4656H0.99821C0.99821 41.4656 0.99821 41.6912 0.99821 41.7514C1.01372 43.7818 1.72733 44.7293 3.71301 44.8797C5.63663 45.0301 8.5531 45.0001 10.7094 44.8647C12.602 44.7444 13.2846 43.481 13.3622 42.0221C13.3622 41.9469 13.3622 41.7965 13.3622 41.6762C13.3001 39.9767 12.2763 39.1344 10.849 38.999Z" fill="white" fill-opacity="0.3"/>
<path d="M38.3538 39.7661C38.7727 39.5856 39.2381 38.999 39.2381 37.856C39.2381 36.1414 38.1056 35.239 36.4457 35.1638C34.7237 35.1638 27.6963 35.1638 27.6963 35.1638V44.97H36.5078C38.571 44.9098 39.5018 43.857 39.5018 41.9619C39.5018 40.6234 38.8502 39.9015 38.3538 39.7661ZM30.349 37.3146C30.349 37.3146 35.7476 37.3146 35.7631 37.3146C36.244 37.3446 36.6629 37.5402 36.6629 38.0666C36.6629 38.608 36.2906 38.8787 35.7166 38.9088H30.349V37.3146ZM35.7166 42.8042H30.3646V40.9543H35.7786C36.2285 40.9693 36.8335 41.1648 36.8335 41.8717C36.818 42.6087 36.3216 42.7892 35.7166 42.8042Z" fill="white" fill-opacity="0.3"/>
<path d="M23.6319 41.6761C23.6163 42.2777 23.2285 42.5183 22.7476 42.5635C21.1653 42.6838 19.4588 42.6838 17.8144 42.5635C17.3646 42.5183 17.0078 42.1122 16.9922 41.646C16.9922 41.1948 16.9922 35.1637 16.9922 35.1637H14.355C14.355 35.1637 14.355 40.533 14.355 42.2326C14.4326 43.9171 15.4564 44.8646 17.2405 44.9248C19.2572 45 21.3359 45.015 23.5388 44.9248C25.2142 44.8646 26.1915 43.8419 26.2846 42.2175C26.2846 40.4879 26.2846 35.1487 26.2846 35.1487H23.6319C23.6319 35.1637 23.6319 41.0895 23.6319 41.6761Z" fill="white" fill-opacity="0.3"/>
<path d="M64.6796 40.3225C65.114 40.0818 65.7345 39.4652 65.7345 38.1116C65.7345 36.0962 64.6331 35.2389 62.8956 35.1487H54.0376V44.9699H56.6748V41.4505H62.1665C62.787 41.4655 63.1128 41.8566 63.1593 42.398C63.2214 43.3907 63.2058 44.9548 63.2058 44.9548H65.8896C65.8896 44.9548 65.8741 43.5411 65.8431 42.4732C65.8121 41.3602 65.207 40.4879 64.6796 40.3225ZM62.1665 39.1945H56.6748V37.3145H62.1665C62.787 37.3596 63.1283 37.6303 63.1283 38.2469C63.1283 38.8335 62.8025 39.1644 62.1665 39.1945Z" fill="white" fill-opacity="0.3"/>
<path d="M47.6927 35.1638H45.071H44.8848L39.3777 44.97H42.3872L43.3335 43.2253H49.3526L50.2834 44.97H53.386L47.8789 35.1638H47.6927ZM44.4505 41.1498L46.3586 37.6003L48.2357 41.1498H44.4505Z" fill="white" fill-opacity="0.3"/>
<path d="M60.46 15.6718C60.2894 15.341 60.2118 15.1304 60.1032 14.7694C60.0257 14.4987 59.9171 14.1077 59.886 14.0024C59.855 13.8821 59.7619 13.852 59.6844 13.852C59.6068 13.852 59.5292 13.8821 59.4982 14.0024C59.4517 14.1378 59.3586 14.4837 59.2655 14.7694C59.1414 15.1906 59.0483 15.4162 58.9242 15.6718C58.7691 15.9576 58.5364 16.1682 58.071 16.2584C57.2023 16.4389 56.4421 16.5893 55.9612 16.6645C54.9374 16.8149 54.4564 16.8901 52.9051 16.6795C52.207 16.5742 51.0436 16.4088 50.1283 16.2434C49.6164 16.1531 49.1665 16.0027 48.9183 15.5214C48.7476 15.1906 48.639 14.8146 48.5304 14.4235C48.4529 14.1829 48.2977 13.6715 48.2512 13.491C48.2202 13.3557 48.1581 13.3105 48.0495 13.3105C47.9409 13.3105 47.8944 13.3557 47.8479 13.491C47.8013 13.6565 47.6617 14.1378 47.5686 14.4235C47.4445 14.7995 47.3359 15.2056 47.1653 15.5214C46.9171 16.0178 46.4982 16.123 45.9708 16.2434C45.2106 16.3938 44.0006 16.5291 42.9147 16.6344C42.4338 16.6946 41.5495 16.7999 41.3479 16.8299C41.2237 16.845 41.1617 16.9051 41.1617 17.0104C41.1617 17.1307 41.2082 17.1759 41.3479 17.1909C41.534 17.221 42.5734 17.3263 42.9147 17.3714C43.4887 17.4315 44.8848 17.612 45.9863 17.7624C46.7309 17.8677 47.1342 18.1535 47.3669 19.0107C47.491 19.477 47.5841 19.8079 47.6617 20.1688C47.7238 20.4546 47.8323 20.9208 47.8634 21.0111C47.8944 21.1464 47.972 21.2066 48.0495 21.2066C48.1426 21.2066 48.2202 21.1615 48.2512 21.0111C48.2667 20.9208 48.4063 20.3493 48.4374 20.1839C48.5149 19.838 48.6235 19.4319 48.7321 18.9957C48.9493 18.2287 49.182 17.973 50.1283 17.7624C50.8729 17.597 52.2381 17.4315 52.8896 17.3413C54.5185 17.1157 54.9374 17.1909 55.9612 17.3263C56.4111 17.3864 57.1868 17.5368 58.071 17.7323C58.645 17.8527 58.8467 18.1535 58.9863 18.5144C59.1259 18.8603 59.219 19.2664 59.3276 19.6876C59.4206 20.0485 59.4982 20.3644 59.4982 20.4245C59.5292 20.5298 59.6068 20.59 59.6844 20.59C59.7774 20.59 59.855 20.5448 59.886 20.4245C59.9016 20.3493 59.9636 20.0335 60.0567 19.6725C60.1653 19.2815 60.2739 18.8603 60.398 18.4994C60.5221 18.1535 60.7082 17.8677 61.2357 17.7474C61.7166 17.6421 62.5233 17.5067 63.1748 17.4165C63.7488 17.3413 64.7261 17.2059 64.8658 17.1909C65.0054 17.1759 65.0674 17.0856 65.0674 17.0104C65.0674 16.9352 65.0209 16.8299 64.8658 16.8149C64.7261 16.7999 63.7798 16.6645 63.1748 16.5742C62.4302 16.469 61.6545 16.3486 61.2357 16.2584C60.9254 16.1832 60.5996 15.9576 60.46 15.6718Z" fill="white" fill-opacity="0.3"/>
<path d="M58.071 22.3647C57.8538 22.3497 56.7989 22.2444 56.2715 22.1842C55.4648 22.094 54.0686 21.8985 53.6187 21.7932C53.1378 21.6879 52.8896 21.5525 52.6724 21.1164C52.5483 20.8757 52.4553 20.6501 52.3777 20.3343C52.3311 20.1388 52.1295 19.492 52.0984 19.3868C52.0674 19.2664 51.9899 19.2213 51.9123 19.2213C51.8347 19.2213 51.7572 19.2514 51.7261 19.3868C51.6796 19.5221 51.5245 20.1237 51.4469 20.3343C51.3693 20.5749 51.2918 20.8005 51.1677 21.1013C50.997 21.4472 50.7643 21.6879 50.2524 21.7932C49.4612 21.9436 48.034 22.1692 47.7082 22.2143C46.4206 22.3797 46.1259 22.4249 45.2416 22.3346C44.5746 22.2745 43.0698 22.0489 42.0615 21.8985C41.4564 21.8082 40.8359 21.7631 40.4946 21.2216C40.293 20.8908 40.1844 20.5749 40.0603 20.1688C39.9362 19.8229 39.7655 19.2063 39.7345 19.0559C39.6879 18.9356 39.6414 18.8604 39.5328 18.8604C39.4242 18.8604 39.3622 18.9356 39.3311 19.0559C39.2846 19.1912 39.0984 19.838 39.0054 20.1388C38.8658 20.59 38.7416 20.9509 38.5555 21.2066C38.2142 21.6879 37.8884 21.7481 37.0662 21.8834C36.1975 22.0188 35.1271 22.1391 34.2894 22.2293C33.5447 22.3045 33.0949 22.3647 32.8156 22.3948C32.676 22.4098 32.5984 22.4549 32.5984 22.5753C32.5984 22.6956 32.676 22.7557 32.8156 22.7708C33.0638 22.8009 33.7774 22.8761 34.2894 22.9362C35.1426 23.0265 35.9027 23.1017 37.0662 23.2671C38.1832 23.4325 38.3848 23.5829 38.7416 24.3951C38.9278 24.8012 38.9899 25.102 39.0674 25.4178C39.145 25.7638 39.3156 26.4556 39.3311 26.606C39.3467 26.7113 39.4087 26.8015 39.5173 26.8015C39.6414 26.8015 39.6879 26.7263 39.719 26.606C39.75 26.4406 39.9206 25.7186 39.9982 25.4329C40.0758 25.117 40.1533 24.8012 40.3085 24.4102C40.6653 23.5228 40.96 23.4325 42.0459 23.2671C42.8837 23.1468 44.435 22.9212 45.2261 22.8309C46.1104 22.7557 46.4517 22.7557 47.6927 22.9212C48.1116 22.9813 49.6008 23.1919 50.2214 23.3122C50.7333 23.4175 50.9815 23.5679 51.2452 24.1545C51.3228 24.35 51.4469 24.7711 51.5245 25.0118C51.6175 25.3126 51.7261 25.7788 51.7416 25.8239C51.7572 25.8841 51.8037 25.9442 51.9123 25.9442C52.0054 25.9442 52.0674 25.8841 52.0829 25.8239C52.114 25.7487 52.2381 25.2825 52.3311 24.9967C52.3932 24.7561 52.5173 24.365 52.6104 24.1545C52.7655 23.8085 52.9517 23.4325 53.5722 23.3273C54.1927 23.222 55.5889 23.0415 56.287 22.9663C56.8144 22.9061 57.9624 22.7708 58.0865 22.7557C58.2261 22.7407 58.2882 22.6505 58.2882 22.5602C58.2727 22.4549 58.2261 22.3797 58.071 22.3647Z" fill="white" fill-opacity="0.3"/>
<path d="M27.7894 13.0848C29.8992 13.4458 30.3801 14.4836 30.7834 15.777C31.0937 16.7997 31.528 18.6046 31.6677 19.2964C31.8073 19.913 32.0555 21.2065 32.0865 21.3118C32.1175 21.4471 32.1796 21.5073 32.2882 21.5073C32.3813 21.5073 32.4588 21.4622 32.4899 21.3118C32.5209 21.1915 32.7691 19.8679 32.9087 19.2964C33.0638 18.6046 33.4982 16.7245 33.793 15.762C34.3359 14.0474 34.8479 13.4608 36.7249 13.145C38.602 12.8141 42.139 12.408 44.2488 12.1674C44.7763 12.1072 46.0018 12.0019 47.1187 11.8666C49.2751 11.641 49.4612 11.656 51.5865 11.9117C52.7035 12.0471 53.4636 12.1373 54.3789 12.2877C55.108 12.408 55.3717 12.6036 55.5889 13.2202C55.7595 13.7015 55.8992 14.2279 55.9922 14.6039C56.0698 14.9197 56.1784 15.4461 56.2094 15.5514C56.2405 15.6868 56.3335 15.7018 56.3956 15.7018C56.4576 15.7018 56.5662 15.6717 56.5973 15.5514C56.6283 15.4161 56.7214 14.9197 56.8144 14.6039C56.892 14.273 57.0937 13.6263 57.2333 13.2202C57.435 12.6637 57.7607 12.4231 58.3037 12.3178C58.9087 12.1824 59.9326 12.0621 60.6927 11.9568C61.2667 11.8816 62.4767 11.7312 62.5543 11.7162C62.6784 11.7011 62.7405 11.641 62.7405 11.5207C62.7405 11.4154 62.6629 11.3552 62.5543 11.3402C62.4767 11.3402 61.2977 11.1898 60.6772 11.0995C59.9636 10.9943 59.0638 10.904 58.2572 10.7386C57.9314 10.6784 57.497 10.513 57.2798 10.0618C57.1247 9.74593 57.0316 9.43009 56.8455 8.81345C56.7834 8.63296 56.6593 8.13664 56.6283 8.01632C56.5817 7.88096 56.5042 7.85088 56.4421 7.85088C56.3646 7.85088 56.287 7.88096 56.2405 8.01632C56.2094 8.13664 56.0853 8.5728 56.0078 8.79841C55.8061 9.44513 55.6975 9.80609 55.5734 10.0618C55.3562 10.4829 55.0149 10.6483 54.4564 10.7536C53.898 10.8439 52.75 10.9943 51.6175 11.1447C49.3837 11.4154 49.2906 11.4003 47.1653 11.1747C46.5292 11.1146 44.8383 10.904 44.2798 10.8288C42.2321 10.6032 38.8347 10.2573 36.7715 9.91137C35.6545 9.71585 34.6462 9.47521 33.9946 7.92608C33.5603 6.88831 33.2965 5.95583 33.0638 5.09854C32.8622 4.39166 32.6295 3.44413 32.5519 3.12829C32.5209 2.97788 32.4433 2.91772 32.3502 2.91772C32.2572 2.91772 32.1951 2.96284 32.1486 3.12829C32.071 3.44413 31.7918 4.43678 31.6056 5.09854C31.3574 5.91071 31.1247 6.88831 30.6903 7.92608C30.1319 9.23457 29.4183 9.62561 27.9445 9.91137C25.8502 10.3024 23.2906 10.6032 20.9326 10.8439C19.7691 10.9642 16.4027 11.3251 16.2631 11.3402C16.1235 11.3552 16.077 11.4605 16.077 11.5207C16.077 11.5959 16.1235 11.6861 16.2631 11.7011C16.4027 11.7162 19.8622 12.0771 20.9481 12.1824C23.3371 12.4381 25.602 12.7239 27.7894 13.0848Z" fill="white" fill-opacity="0.3"/>
<path d="M40.293 29.7343C55.744 29.7343 68.6354 23.0715 68.6354 14.8596C68.6354 6.64773 55.744 0 40.293 0C24.8574 0 11.7178 6.64773 11.7178 14.8596C11.7178 23.0715 24.6402 29.7343 40.293 29.7343ZM40.3085 1.57921C54.4875 1.57921 66.5567 7.47493 66.5567 14.8747C66.5567 22.2142 54.6116 28.1701 40.3085 28.1701C25.5245 28.1701 13.7965 22.2142 13.7965 14.8747C13.7965 7.45989 26.0209 1.57921 40.3085 1.57921Z" fill="white" fill-opacity="0.3"/>
</g>
<defs>
<clipPath id="clip0_558_854">
<rect width="78" height="45" fill="white" transform="translate(0.936157)"/>
</clipPath>
</defs>
</svg>
