<svg width="69" height="45" viewBox="0 0 69 45" fill="none" xmlns="http://www.w3.org/2000/svg">
<g clip-path="url(#clip0_558_866)">
<path fill-rule="evenodd" clip-rule="evenodd" d="M49.3736 20.732C49.3736 20.732 46.5807 21.5377 41.1918 24.8498C36.3579 27.8307 34.4601 29.8269 34.4601 29.8269L19.5288 19.5236C19.5288 19.5236 25.8039 14.9045 31.0496 18.4404L38.0856 23.2654L38.9449 22.7014L19.5377 9.10384C19.5377 9.10384 22.3306 8.29819 27.7195 4.98608C32.5534 2.00517 34.4512 0 34.4512 0L49.3736 10.3123C49.3736 10.3123 43.0985 14.9314 37.8528 11.3955L30.8168 6.57052L29.9574 7.13447L49.3736 20.732Z" fill="white" fill-opacity="0.3"/>
<path fill-rule="evenodd" clip-rule="evenodd" d="M37.817 34.804H26.4573V37.3283H31.9447L26.2604 42.6277V44.7403H37.7901V42.207H32.0611L37.817 36.9165V34.804Z" fill="white" fill-opacity="0.3"/>
<path fill-rule="evenodd" clip-rule="evenodd" d="M19.7704 44.9999C24.3089 44.9999 25.4727 43.8362 25.4727 41.285V34.804H21.8741V40.9C21.8741 41.9205 20.9968 42.5292 19.7704 42.5292C18.4904 42.5292 17.6668 41.9205 17.6668 40.8821V34.804H14.0682V41.285C14.0682 43.8362 15.232 44.9999 19.7704 44.9999Z" fill="white" fill-opacity="0.3"/>
<path fill-rule="evenodd" clip-rule="evenodd" d="M44.4054 44.9999C48.9439 44.9999 50.1076 43.8362 50.1076 41.285V34.804H46.5091V40.9C46.5091 41.9205 45.6318 42.5292 44.4054 42.5292C43.1253 42.5292 42.3018 41.9205 42.3018 40.8821V34.804H38.7032V41.285C38.7032 43.8362 39.8669 44.9999 44.4054 44.9999Z" fill="white" fill-opacity="0.3"/>
<path d="M68.0736 34.804H64.3229V44.7493H68.0736V34.804Z" fill="white" fill-opacity="0.3"/>
<path fill-rule="evenodd" clip-rule="evenodd" d="M63.75 34.804H58.8176L54.8162 38.2324V34.804H51.0655V44.7403H54.8162V41.2133L58.5311 44.7403H63.5709L58.0836 39.6379L63.75 34.804Z" fill="white" fill-opacity="0.3"/>
<path fill-rule="evenodd" clip-rule="evenodd" d="M5.19715 37.5433C5.19715 36.7735 6.33401 36.7466 6.71893 36.7466C7.10385 36.7466 7.97216 36.8988 8.56297 37.8656H12.8061C12.8061 35.9947 11.0336 34.4998 6.72788 34.4998C1.95665 34.4998 1.14205 36.5944 1.14205 37.794C1.14205 40.014 2.86076 40.6585 6.59361 41.0613C6.91587 41.0971 8.85838 40.9987 8.85838 41.9386C8.85838 42.6279 7.76627 42.6726 7.36345 42.6726C6.96063 42.6726 6.21764 42.61 5.59997 41.5089H0.936157C0.936157 43.6931 2.40423 44.9553 7.36345 44.9553C11.9288 44.9553 13.1462 43.0934 13.1462 41.67C13.1462 40.2915 12.1973 38.895 8.30337 38.3937C6.68312 38.2057 5.19715 38.1162 5.19715 37.5433Z" fill="white" fill-opacity="0.3"/>
</g>
<defs>
<clipPath id="clip0_558_866">
<rect width="67.1375" height="45" fill="white" transform="translate(0.936157)"/>
</clipPath>
</defs>
</svg>
