<svg width="87" height="46" viewBox="0 0 87 46" fill="none" xmlns="http://www.w3.org/2000/svg">
<path d="M12.1404 2.27263V43.0892C12.1404 44.2709 11.1932 45.2709 10.0739 45.2709H8.78239C7.66306 45.2709 6.71594 44.2709 6.71594 43.0892V6.727C6.71594 5.54523 5.76883 4.54527 4.6495 4.54527H2.06644C0.947116 4.54527 0 3.54531 0 2.36354V2.18173C0 0.999959 0.947116 0 2.06644 0H9.98781C11.1932 0.0909054 12.1404 1.09086 12.1404 2.27263Z" fill="white"/>
<path d="M31.1687 2.27263V43.0892C31.1687 44.2709 30.2216 45.2709 29.1023 45.2709H27.8107C26.6914 45.2709 25.7443 44.2709 25.7443 43.0892V6.727C25.7443 5.54523 24.7972 4.54527 23.6778 4.54527H21.0948C19.9755 4.54527 19.0283 3.54531 19.0283 2.36354V2.18173C19.0283 0.999959 19.9755 0 21.0948 0H29.0162C30.3077 0.0909054 31.1687 1.09086 31.1687 2.27263Z" fill="white"/>
<path d="M76.2863 45.18H41.0706C40.4679 45.18 39.9513 44.9073 39.5208 44.4527C39.1764 44.0891 39.0042 43.5437 39.0042 43.0892V42.4528C39.0042 41.271 39.9513 40.2711 41.0706 40.2711H76.2863C78.1805 40.2711 79.5582 39.9075 80.4192 39.1802C81.2802 38.453 81.7107 37.0894 81.7107 35.2713V30.0897C81.7107 28.2716 81.2802 26.908 80.4192 26.1808C79.5582 25.4535 78.1805 25.0899 76.2863 25.0899H57.43C56.3106 25.0899 55.3635 24.0899 55.3635 22.9082V22.2718C55.3635 21.09 56.3106 20.0901 57.43 20.0901H76.2863C78.1805 20.0901 79.5582 19.7265 80.4192 18.9083C81.2802 18.0902 81.7107 16.8175 81.7107 14.9994V9.99959C81.7107 8.18149 81.2802 6.8179 80.4192 6.09066C79.5582 5.27251 78.1805 4.90889 76.2863 4.90889H41.0706C39.9513 4.90889 39.0042 3.90893 39.0042 2.72716V2.18173C39.0042 1.7272 39.1764 1.18177 39.4347 0.818148C39.7791 0.363621 40.3818 0 40.9845 0H76.1141C83.2606 0 86.8769 3.3635 86.8769 9.99959V14.3631C86.8769 17.1811 85.9297 19.3628 84.1216 20.8173C83.0023 21.7264 83.0023 23.3627 84.1216 24.2717C85.9297 25.7262 86.8769 27.908 86.8769 30.726V35.1804C87.0491 41.9074 83.4328 45.18 76.2863 45.18Z" fill="white"/>
</svg>
