<svg width="145" height="33" viewBox="0 0 145 33" fill="none" xmlns="http://www.w3.org/2000/svg">
<g clip-path="url(#clip0_558_888)">
<path fill-rule="evenodd" clip-rule="evenodd" d="M83.6394 29.202C83.6394 29.4528 83.713 29.6319 83.8969 29.6319C84.044 29.6319 84.1544 29.5603 84.2279 29.4886L129.102 1.11075C129.837 0.60912 130.683 0.358306 131.566 0.358306C131.603 0.358306 131.639 0.358306 131.676 0.358306H141.534C143.042 0.358306 144.072 1.32573 144.072 2.83062V21.1759C144.072 23.3974 143.557 24.6873 141.534 25.8697L129.58 32.8925C129.469 32.9642 129.322 33.0358 129.175 33.0358C129.028 33.0358 128.881 32.9283 128.881 32.5342V11.0717C128.881 10.8208 128.807 10.6417 128.623 10.6417C128.513 10.6417 128.366 10.7134 128.292 10.785L95.4831 31.5309C94.7475 32.0326 93.8647 32.2834 92.9452 32.2834H71.2073C69.6992 32.2834 68.6693 31.316 68.6693 29.8111V3.40391C68.6693 3.22476 68.5958 3.00977 68.4118 3.00977C68.3015 3.00977 68.1544 3.08143 68.0808 3.15309L46.4532 15.8013C46.2325 15.9446 46.1958 16.0521 46.1958 16.1238C46.1958 16.1954 46.2325 16.3029 46.3797 16.4463L61.8279 31.4951C62.0118 31.6743 62.159 31.8534 62.159 31.9967C62.159 32.1401 61.9383 32.2476 61.644 32.2476H47.667C46.5636 32.2476 45.7176 32.1042 45.1291 31.5309L35.8601 22.43C35.7866 22.3583 35.6762 22.2866 35.5659 22.2866C35.4555 22.2866 35.382 22.3225 35.2716 22.3583L19.6027 31.5668C18.6463 32.1401 18.021 32.2834 17.0647 32.2834H2.64633C1.1015 32.2834 0.108398 31.316 0.108398 29.8111V11.8241C0.108398 9.60261 0.623341 8.3127 2.64633 7.13029L14.6739 0.107492C14.7843 0.0358306 14.8946 0 15.005 0C15.1889 0 15.2992 0.179153 15.2992 0.57329V24.6873C15.2992 24.9381 15.3728 25.0456 15.5567 25.0456C15.7038 25.0456 15.8141 24.9739 15.9245 24.9023L56.5682 1.07492C57.3406 0.57329 58.2969 0.286645 59.2532 0.358306H81.1383C82.6463 0.358306 83.6762 1.32573 83.6762 2.83062L83.6394 29.202Z" fill="white" fill-opacity="0.3"/>
</g>
<defs>
<clipPath id="clip0_558_888">
<rect width="144" height="33" fill="white" transform="translate(0.108398)"/>
</clipPath>
</defs>
</svg>
