<svg width="87" height="45" viewBox="0 0 87 45" fill="none" xmlns="http://www.w3.org/2000/svg">
<path fill-rule="evenodd" clip-rule="evenodd" d="M52.6326 27.627C53.2817 31.115 51.5198 34.0373 50.0361 36.7711C48.3669 39.4107 45.6777 41.5789 42.3393 41.2961C35.0135 41.2018 27.7805 40.0706 21.1038 37.9966C20.8256 37.9024 20.4546 37.7138 20.3619 37.431C20.2692 37.0539 20.4546 36.6769 20.7328 36.3941C26.8531 31.3978 34.0862 29.0411 41.2266 26.5901C43.9158 25.8359 46.7905 24.9875 49.7579 25.3646C50.9634 25.5531 52.1689 26.4958 52.6326 27.627ZM77.7628 12.7325C81.1939 15.5606 84.2541 19.5199 83.234 24.2333C81.5648 31.2093 74.0536 34.8857 68.1188 37.2425C64.8731 38.3737 61.6275 39.5049 58.1037 39.7877C57.9183 39.7877 57.5473 39.7877 57.4546 39.5049L57.5473 39.1279C62.5548 33.3774 66.3568 26.9672 69.6952 20.3683C71.2716 17.446 72.6626 14.4294 73.9608 11.4128C74.1463 11.2242 74.3318 11.0357 74.61 11.0357C75.9082 11.1299 76.7428 12.0726 77.7628 12.7325ZM29.6351 5.37954L29.5424 5.75661C22.3093 14.1466 17.4872 23.8563 12.9434 33.566C12.0161 34.4144 11.1815 33.2832 10.4396 32.9061C6.35943 30.2666 2.74289 25.9302 3.76294 20.7454C5.43211 14.0523 12.2943 10.3758 17.9509 8.01907C21.2892 6.6993 24.813 5.66234 28.5223 5.09673C28.8932 5.09673 29.4496 5.00246 29.6351 5.37954ZM65.615 6.6993C65.9859 6.88784 66.5423 6.98211 66.7278 7.45346C66.9132 7.9248 66.5423 8.20761 66.2641 8.58469C60.6075 13.1096 54.1163 15.6549 47.4396 17.8231C44.0085 18.6715 40.5774 20.1798 36.8682 19.3314C35.9408 19.1428 35.199 18.4829 34.6426 17.6345C33.7153 14.995 35.0135 12.2612 36.0336 9.90445C37.5173 6.98211 40.1138 3.58843 43.6376 3.58843C51.427 3.58843 58.7528 4.71965 65.615 6.6993ZM75.1664 6.98211C81.0085 10.2815 87.6851 15.9377 86.9433 23.5735C86.1087 30.6436 79.6175 35.5456 73.8681 38.5622C56.9909 46.7637 33.1589 47.0465 15.7253 39.882C9.7905 37.431 3.20655 33.0946 0.702795 26.6843C-1.24457 21.4053 1.07372 15.8434 4.96845 12.1669C13.1288 4.62539 23.5148 2.08012 34.1789 0.571816C45.7704 -0.84222 58.011 0.383278 68.3042 4.05977C70.7152 4.81392 73.0335 5.75661 75.1664 6.98211Z" fill="white" fill-opacity="0.3"/>
</svg>
