<svg width="69" height="45" viewBox="0 0 69 45" fill="none" xmlns="http://www.w3.org/2000/svg">
<path d="M49.7966 2.20809C45.5317 0.81997 40.222 0 34.47 0C28.7181 0 23.4074 0.820219 19.1413 2.20809C7.79561 5.90005 0 13.5673 0 22.4282C0 34.8929 15.4317 45 34.47 45C53.5038 45 68.9362 34.8929 68.9362 22.4282C68.9362 13.5678 61.1403 5.90303 49.7966 2.20809ZM34.47 35.2943C31.6288 35.2943 29.3088 29.6407 29.1728 22.5361C30.8812 22.6917 32.6533 22.775 34.47 22.775C36.2868 22.775 38.0562 22.6917 39.7666 22.5361C39.6293 29.6407 37.3101 35.2943 34.47 35.2943ZM29.5307 16.974C30.3052 11.9872 32.2236 8.45473 34.47 8.45473C36.7164 8.45473 38.6322 11.9872 39.406 16.974C37.8278 17.1184 36.1745 17.1972 34.47 17.1972C32.7656 17.1972 31.1121 17.1174 29.5307 16.974ZM42.4247 16.5978C41.2727 8.77056 38.1462 3.15954 34.47 3.15954C30.7939 3.15954 27.6654 8.77056 26.5129 16.5978C19.5112 15.4913 14.6172 12.9734 14.6172 10.0401C14.6172 6.08736 23.5059 2.88291 34.4708 2.88291C45.4356 2.88291 54.3217 6.08736 54.3217 10.0401C54.3217 12.9734 49.4277 15.4913 42.4255 16.5978H42.4247ZM5.03081 21.6013C5.03081 17.7805 6.48355 14.199 9.01869 11.1183C8.9896 11.3321 8.97479 11.5476 8.97433 11.7634C8.97433 16.5701 16.1069 20.656 26.0526 22.1587C26.0448 22.5217 26.0389 22.8854 26.0389 23.2531C26.0389 32.1906 28.488 39.7609 31.8741 42.3709C16.83 41.4403 5.03081 32.4988 5.03081 21.6013ZM37.0662 42.3719C40.4506 39.7619 42.8997 32.1921 42.8997 23.2541C42.8997 22.8864 42.8958 22.5227 42.8877 22.1597C52.8307 20.6575 59.9648 16.5715 59.9648 11.7644C59.964 11.5485 59.9486 11.333 59.919 11.1193C62.4536 14.2 63.9071 17.781 63.9071 21.6023C63.9071 32.4998 52.1074 41.4413 37.0679 42.3724" fill="white" fill-opacity="0.3"/>
</svg>
